 http://www.imdb.com/title/tt1070781/
 
http://www.goodintentionsmovie.com/

User Rating:4.5/10 - 105 votes

Comedy

Director:Jim Issa

Cast:Elaine Hendrix/Luke Perry/Jon Gries/Jimmi Simpson, and others.

Plot:
Meet Etta Milford. Loving Wife. Doting Mother. Armed Robber. Etta's husband constantly blows their money on make-shift inventions. When she decides to secretly take "investment" matters into her own hands - things quickly go awry! With their savings gone, her husband suspicious, and their children out of control, Etta concocts a scheme to get back their money and save her family. There 
are just a few things she has to do first, including blackmailing the sheriff and holding up the grocery store...

Info:

Covers included.

Subtitles: Dutch, English, Indonesian, Romanian, Spanish (srt).

General
Complete name                    : Good Intentions-AC3-5,1-DVDRip[Eng]2010.avi
Format                           : AVI
Format/Info                      : Audio Video Interleave
File size                        : 1.37 GiB
Duration                         : 1h 24mn
Overall bit rate                 : 2 323 Kbps
Writing application              : VirtualDubMod 1.5.10.2 (build 2540/release)
Writing library                  : VirtualDubMod build 2540/release

Video
ID                               : 0
Format                           : MPEG-4 Visual
Format profile                   : AdvancedSimple@L5
Format settings, BVOP            : Yes
Format settings, QPel            : No
Format settings, GMC             : No warppoints
Format settings, Matrix          : Default (MPEG)
Codec ID                         : XVID
Codec ID/Hint                    : XviD
Duration                         : 1h 24mn
Bit rate                         : 1 866 Kbps
Width                            : 720 pixels
Height                           : 400 pixels
Display aspect ratio             : 16:9
Frame rate                       : 23.976 fps
Resolution                       : 24 bits
Colorimetry                      : 4:2:0
Scan type                        : Progressive
Bits/(Pixel*Frame)               : 0.270
Stream size                      : 1.10 GiB (80%)
Writing library                  : XviD 1.2.1 (UTC 2008-12-04)

Audio
ID                               : 1
Format                           : AC-3
Format/Info                      : Audio Coding 3
Codec ID                         : 2000
Duration                         : 1h 24mn
Bit rate mode                    : Constant
Bit rate                         : 448 Kbps
Channel(s)                       : 6 channels
Channel positions                : Front: L C R, Surround: L R, LFE
Sampling rate                    : 48.0 KHz
Stream size                      : 270 MiB (19%)
Alignment                        : Split accross interleaves
Interleave, duration             : 42 ms (1.00 video frame)
Interleave, preload duration     : 500 ms

Enjoy...